<svg width="512" height="512" viewBox="0 0 512 512" fill="none" xmlns="http://www.w3.org/2000/svg">
<path fill-rule="evenodd" clip-rule="evenodd" d="M203.451 494.263C305.458 494.263 388.15 412.078 388.15 310.698C388.15 209.317 305.458 127.132 203.451 127.132C185.458 127.132 168.066 129.689 151.622 134.458C146.47 135.952 148.797 144.129 154.161 144.129C240.209 144.129 353.59 218.451 353.59 310.131C353.59 401.812 240.209 476.133 154.161 476.133C148.282 476.133 145.558 485.164 151.2 486.814C167.768 491.662 185.304 494.263 203.451 494.263Z" fill="#FF5C00"/>
<path fill-rule="evenodd" clip-rule="evenodd" d="M271.903 170.384L264.258 161.999C261.451 158.921 260.86 158.326 260.317 157.904C258.622 156.585 256.56 155.81 254.427 155.688C253.743 155.649 252.912 155.708 248.802 156.185L239.636 157.247C239.313 157.285 238.993 157.322 238.676 157.359C234.211 157.881 230.326 158.335 226.636 157.893C217.637 156.816 209.467 151.901 204.343 144.483C202.242 141.442 200.852 137.815 199.254 133.645C199.14 133.349 199.026 133.05 198.91 132.749C198.876 132.66 198.842 132.571 198.808 132.484C198.301 131.167 197.854 130.006 197.502 128.798C196.651 125.878 196.257 122.863 196.335 119.857C196.367 118.613 196.503 117.398 196.658 116.02C196.669 115.928 196.679 115.835 196.689 115.742L202.102 67.4204C202.292 65.7263 202.322 65.3931 202.331 65.0952C202.36 64.1789 202.257 63.259 202.025 62.3622C201.95 62.0706 201.846 61.7474 201.283 60.1098L193.763 38.2409L212.94 32.5182L220.46 54.3871C220.489 54.4718 220.518 54.5558 220.547 54.6391C220.977 55.8893 221.357 56.9921 221.652 58.136C222.347 60.8265 222.656 63.586 222.571 66.3349C222.535 67.5035 222.407 68.6443 222.261 69.9376C222.252 70.0239 222.242 70.1108 222.232 70.1984L216.819 118.52C216.617 120.326 216.585 120.681 216.577 120.998C216.551 122 216.683 123.005 216.966 123.978C217.056 124.286 217.179 124.628 217.842 126.353C219.986 131.932 220.498 133.066 221.021 133.823C222.729 136.296 225.453 137.934 228.452 138.293C229.371 138.403 230.621 138.329 236.599 137.636L245.765 136.573C245.982 136.548 246.197 136.523 246.41 136.498C249.515 136.136 252.24 135.818 254.95 135.973C261.351 136.339 267.536 138.666 272.621 142.621C274.775 144.296 276.634 146.338 278.754 148.666C278.899 148.826 279.046 148.987 279.194 149.149L286.838 157.533L271.903 170.384Z" fill="#FF5C00"/>
<path d="M216.446 61.0974C229.188 68.7495 201.006 61.9725 210.19 57.5785C213.208 56.1348 228.567 54.1541 237.951 68.3779C247.334 82.6017 251.955 97.4447 275.313 105.98C298.671 114.516 366.392 139.251 366.392 139.251C366.392 139.251 348.763 90.6002 312.638 68.3779C276.513 46.1556 246.209 49.0175 220.962 52.3481C180.889 65.5999 207.013 2.71244 216.446 61.0974Z" fill="#FF5C00"/>
<path d="M190.987 218.016C190.987 216.635 192.106 215.516 193.487 215.516H246.276C247.657 215.516 248.776 216.635 248.776 218.016V292.334C248.776 293.715 247.657 294.834 246.276 294.834H193.487C192.106 294.834 190.987 293.715 190.987 292.334V218.016Z" fill="#FF5C00"/>
<path d="M125.5 337.893C124.119 337.893 123 336.773 123 335.393V282.603C123 281.223 124.119 280.103 125.5 280.103H215.682C217.063 280.103 218.182 281.223 218.182 282.603V335.393C218.182 336.773 217.063 337.893 215.682 337.893H125.5Z" fill="#FF5C00"/>
<path d="M216.15 336.759C214.769 336.759 213.65 335.64 213.65 334.259V281.47C213.65 280.09 214.769 278.97 216.15 278.97H314.264C315.644 278.97 316.764 280.09 316.764 281.47V334.259C316.764 335.64 315.644 336.759 314.264 336.759H216.15Z" fill="#FF5C00"/>
<path d="M190.987 329.061C190.987 327.681 192.106 326.561 193.487 326.561H246.276C247.657 326.561 248.776 327.681 248.776 329.061V403.38C248.776 404.76 247.657 405.88 246.276 405.88H193.487C192.106 405.88 190.987 404.76 190.987 403.38V329.061Z" fill="#FF5C00"/>
</svg>
